<?xml version="1.0" encoding="iso-8859-1"?>
<!-- Generator: Adobe Illustrator 19.0.0, SVG Export Plug-In . SVG Version: 6.00 Build 0)  -->
<svg width='28px' version="1.1" id="Layer_1" xmlns="http://www.w3.org/2000/svg" xmlns:xlink="http://www.w3.org/1999/xlink" x="0px" y="0px"
	 viewBox="0 0 503.607 503.607" style="enable-background:new 0 0 503.607 503.607;" xml:space="preserve">
<g transform="translate(1)">
	<g>
		<g>
			<path d="M502.548,305.958c-0.017-0.436-0.117-0.856-0.201-1.293c-0.092-0.428-0.176-0.848-0.327-1.251
				c-0.092-0.243-0.084-0.495-0.193-0.73c-10.248-22.016-48.564-29.906-97.087-39.894c-23.225-4.784-48.858-10.089-73.921-17.5
				c-0.403,1.116-1.007,2.182-1.905,3.089l-26.708,26.708c-1.637,1.645-3.785,2.459-5.934,2.459c-2.14,0-4.289-0.814-5.934-2.459
				c-3.273-3.273-3.273-8.586,0-11.868l23.401-23.401c-4.658-1.603-9.275-3.307-13.824-5.103c-0.378,0.73-0.755,1.46-1.368,2.065
				L273.524,261.8c-1.637,1.637-3.785,2.459-5.934,2.459c-2.14,0-4.289-0.823-5.934-2.459c-3.273-3.282-3.273-8.595,0-11.868
				l22.15-22.15c-4.18-1.972-8.251-4.071-12.246-6.253c-0.21,0.26-0.302,0.579-0.546,0.823l-27.22,27.203
				c-1.637,1.645-3.785,2.459-5.934,2.459c-2.14,0-4.289-0.814-5.934-2.459c-3.273-3.273-3.273-8.595,0-11.868l24.979-24.97
				c-6.102-4.096-11.877-8.528-17.232-13.354c-0.302-0.277-0.63-0.546-0.974-0.781c-0.269-0.185-26.951-18.843-29.637-54.28
				c-0.63-8.1-7.109-14.202-15.075-14.202h-85.873v33.574c0,27.774-22.587,50.361-50.361,50.361h-0.462
				c41.808,27.396,98.883,39.155,146.054,48.841c17.249,3.542,33.523,6.883,47.515,10.668c22.285,6.018,39.6,23.057,46.668,45.14
				c-5.875-0.126-11.893-0.277-18.113-0.478c-6.27-13.916-18.13-24.458-32.927-28.462c-13.497-3.643-29.537-6.933-46.516-10.416
				c-55.657-11.432-124.626-25.676-170.437-65.293H15.686c-2.157,8.905-4.675,17.836-7.646,26.767
				c-0.772,2.317-1.393,4.549-2.056,6.807h9.804c32.029,2.619,55.405,27.363,58.41,59.988c-6.035-0.193-11.701-0.344-17.055-0.47
				c-2.921-23.661-19.305-40.876-42.043-42.756L1.82,264.377c-3.231,16.795-3.122,31.761,0.034,44.913
				C0.142,310.826-1,312.983-1,315.451v41.052c0,4.566,3.651,8.293,8.217,8.393c2.023,0.042,203.91,4.482,333.505,8.393
				c4.893,0.151,9.661,0.218,14.277,0.218c71.932,0,111.549-17.249,132.381-32.248c14.143-10.173,15.226-20.883,15.226-34.9
				C502.607,306.226,502.556,306.092,502.548,305.958z M477.577,327.638c-20.077,14.445-60.097,31.156-136.343,28.873
				c-114.764-3.466-286.158-7.344-325.447-8.217v-24.828c30.065-0.185,83.162,0.89,171.797,6.555
				c0.579,0.034,1.116,0.067,1.687,0.109c6.161,0.395,12.498,0.814,19.003,1.251c6.983,0.478,13.748,0.89,20.413,1.284
				c1.486,0.084,2.954,0.168,4.423,0.252c6.169,0.353,12.221,0.672,18.113,0.948c0.302,0.017,0.621,0.034,0.923,0.05
				c27.682,1.309,52.383,1.872,74.416,1.888c0.218,0,0.453,0.008,0.663,0.008c0.319,0,0.621-0.008,0.94-0.008
				c3.769,0,7.462-0.017,11.071-0.05c0.285-0.008,0.571-0.008,0.848-0.008c83.59-0.856,125.499-10.03,144.51-16.342
				C483.503,322.476,481.447,324.851,477.577,327.638z"/>
			<path d="M57.757,197.248c18.516,0,33.574-15.058,33.574-33.574v-33.574H39.317c-8.343,0-15.133,6.79-15.133,15.133
				c0,12.38-0.89,24.92-2.594,37.552l14.462,14.462H57.757z"/>
		</g>
	</g>
</g>
<g>
</g>
<g>
</g>
<g>
</g>
<g>
</g>
<g>
</g>
<g>
</g>
<g>
</g>
<g>
</g>
<g>
</g>
<g>
</g>
<g>
</g>
<g>
</g>
<g>
</g>
<g>
</g>
<g>
</g>
</svg>
